<mxfile host="app.diagrams.net" modified="2021-12-28T09:23:26.378Z" agent="5.0 (Windows NT 10.0; Win64; x64) AppleWebKit/537.36 (KHTML, like Gecko) Chrome/96.0.4664.110 Safari/537.36" etag="_cmp9xx9NWVAHrWYQNzE" version="16.1.0" type="github">
  <diagram id="C5RBs43oDa-KdzZeNtuy" name="Page-1">
    <mxGraphModel dx="1887" dy="1045" grid="1" gridSize="10" guides="1" tooltips="1" connect="1" arrows="1" fold="1" page="1" pageScale="1" pageWidth="827" pageHeight="1169" math="0" shadow="0">
      <root>
        <mxCell id="WIyWlLk6GJQsqaUBKTNV-0" />
        <mxCell id="WIyWlLk6GJQsqaUBKTNV-1" parent="WIyWlLk6GJQsqaUBKTNV-0" />
        <mxCell id="QnZ6BssVdnIy031K_utP-1" value="ROOM" style="swimlane;fontStyle=0;childLayout=stackLayout;horizontal=1;startSize=26;fillColor=none;horizontalStack=0;resizeParent=1;resizeParentMax=0;resizeLast=0;collapsible=1;marginBottom=0;" vertex="1" parent="WIyWlLk6GJQsqaUBKTNV-1">
          <mxGeometry x="1080" y="248" width="230" height="336" as="geometry">
            <mxRectangle x="50" y="200" width="90" height="26" as="alternateBounds" />
          </mxGeometry>
        </mxCell>
        <mxCell id="QnZ6BssVdnIy031K_utP-2" value="- roomNo : int                  // 객실 번호" style="text;strokeColor=none;fillColor=none;align=left;verticalAlign=top;spacingLeft=4;spacingRight=4;overflow=hidden;rotatable=0;points=[[0,0.5],[1,0.5]];portConstraint=eastwest;" vertex="1" parent="QnZ6BssVdnIy031K_utP-1">
          <mxGeometry y="26" width="230" height="26" as="geometry" />
        </mxCell>
        <mxCell id="QnZ6BssVdnIy031K_utP-3" value="- roomName : String       // 객실 이름" style="text;strokeColor=none;fillColor=none;align=left;verticalAlign=top;spacingLeft=4;spacingRight=4;overflow=hidden;rotatable=0;points=[[0,0.5],[1,0.5]];portConstraint=eastwest;" vertex="1" parent="QnZ6BssVdnIy031K_utP-1">
          <mxGeometry y="52" width="230" height="26" as="geometry" />
        </mxCell>
        <mxCell id="QnZ6BssVdnIy031K_utP-4" value="- roomMember : int         // 객실 최대 인원" style="text;strokeColor=none;fillColor=none;align=left;verticalAlign=top;spacingLeft=4;spacingRight=4;overflow=hidden;rotatable=0;points=[[0,0.5],[1,0.5]];portConstraint=eastwest;" vertex="1" parent="QnZ6BssVdnIy031K_utP-1">
          <mxGeometry y="78" width="230" height="26" as="geometry" />
        </mxCell>
        <mxCell id="QnZ6BssVdnIy031K_utP-5" value="- roomPrice : int              // 객실 가격" style="text;strokeColor=none;fillColor=none;align=left;verticalAlign=top;spacingLeft=4;spacingRight=4;overflow=hidden;rotatable=0;points=[[0,0.5],[1,0.5]];portConstraint=eastwest;" vertex="1" parent="QnZ6BssVdnIy031K_utP-1">
          <mxGeometry y="104" width="230" height="26" as="geometry" />
        </mxCell>
        <mxCell id="QnZ6BssVdnIy031K_utP-6" value="- roomSize : String              // 객실 크기" style="text;strokeColor=none;fillColor=none;align=left;verticalAlign=top;spacingLeft=4;spacingRight=4;overflow=hidden;rotatable=0;points=[[0,0.5],[1,0.5]];portConstraint=eastwest;" vertex="1" parent="QnZ6BssVdnIy031K_utP-1">
          <mxGeometry y="130" width="230" height="26" as="geometry" />
        </mxCell>
        <mxCell id="QnZ6BssVdnIy031K_utP-7" value="- roomFloor : String        // 바닥 형태 설정" style="text;strokeColor=none;fillColor=none;align=left;verticalAlign=top;spacingLeft=4;spacingRight=4;overflow=hidden;rotatable=0;points=[[0,0.5],[1,0.5]];portConstraint=eastwest;" vertex="1" parent="QnZ6BssVdnIy031K_utP-1">
          <mxGeometry y="156" width="230" height="24" as="geometry" />
        </mxCell>
        <mxCell id="QnZ6BssVdnIy031K_utP-8" value="- roomParking : String    // 주차 유형 선택" style="text;strokeColor=none;fillColor=none;align=left;verticalAlign=top;spacingLeft=4;spacingRight=4;overflow=hidden;rotatable=0;points=[[0,0.5],[1,0.5]];portConstraint=eastwest;" vertex="1" parent="QnZ6BssVdnIy031K_utP-1">
          <mxGeometry y="180" width="230" height="26" as="geometry" />
        </mxCell>
        <mxCell id="QnZ6BssVdnIy031K_utP-9" value="- roomInfo : String          //  객실 소개" style="text;strokeColor=none;fillColor=none;align=left;verticalAlign=top;spacingLeft=4;spacingRight=4;overflow=hidden;rotatable=0;points=[[0,0.5],[1,0.5]];portConstraint=eastwest;" vertex="1" parent="QnZ6BssVdnIy031K_utP-1">
          <mxGeometry y="206" width="230" height="26" as="geometry" />
        </mxCell>
        <mxCell id="QnZ6BssVdnIy031K_utP-10" value="- roomAmount : int         // 보유 객실 수량" style="text;strokeColor=none;fillColor=none;align=left;verticalAlign=top;spacingLeft=4;spacingRight=4;overflow=hidden;rotatable=0;points=[[0,0.5],[1,0.5]];portConstraint=eastwest;" vertex="1" parent="QnZ6BssVdnIy031K_utP-1">
          <mxGeometry y="232" width="230" height="26" as="geometry" />
        </mxCell>
        <mxCell id="QnZ6BssVdnIy031K_utP-11" value="- campNo : int                // 숙소 번호" style="text;strokeColor=none;fillColor=none;align=left;verticalAlign=top;spacingLeft=4;spacingRight=4;overflow=hidden;rotatable=0;points=[[0,0.5],[1,0.5]];portConstraint=eastwest;" vertex="1" parent="QnZ6BssVdnIy031K_utP-1">
          <mxGeometry y="258" width="230" height="26" as="geometry" />
        </mxCell>
        <mxCell id="QnZ6BssVdnIy031K_utP-12" value="- roomForm : String       // 객실 형태 설정" style="text;strokeColor=none;fillColor=none;align=left;verticalAlign=top;spacingLeft=4;spacingRight=4;overflow=hidden;rotatable=0;points=[[0,0.5],[1,0.5]];portConstraint=eastwest;" vertex="1" parent="QnZ6BssVdnIy031K_utP-1">
          <mxGeometry y="284" width="230" height="26" as="geometry" />
        </mxCell>
        <mxCell id="QnZ6BssVdnIy031K_utP-13" value="- roomCount : String      // 잔여 객실 수량" style="text;strokeColor=none;fillColor=none;align=left;verticalAlign=top;spacingLeft=4;spacingRight=4;overflow=hidden;rotatable=0;points=[[0,0.5],[1,0.5]];portConstraint=eastwest;" vertex="1" parent="QnZ6BssVdnIy031K_utP-1">
          <mxGeometry y="310" width="230" height="26" as="geometry" />
        </mxCell>
        <mxCell id="QnZ6BssVdnIy031K_utP-15" value="RoomController" style="swimlane;fontStyle=1;align=center;verticalAlign=top;childLayout=stackLayout;horizontal=1;startSize=26;horizontalStack=0;resizeParent=1;resizeParentMax=0;resizeLast=0;collapsible=1;marginBottom=0;" vertex="1" parent="WIyWlLk6GJQsqaUBKTNV-1">
          <mxGeometry x="84" y="40" width="660" height="140" as="geometry" />
        </mxCell>
        <mxCell id="QnZ6BssVdnIy031K_utP-16" value=" " style="text;strokeColor=none;fillColor=none;align=left;verticalAlign=top;spacingLeft=4;spacingRight=4;overflow=hidden;rotatable=0;points=[[0,0.5],[1,0.5]];portConstraint=eastwest;" vertex="1" parent="QnZ6BssVdnIy031K_utP-15">
          <mxGeometry y="26" width="660" height="26" as="geometry" />
        </mxCell>
        <mxCell id="QnZ6BssVdnIy031K_utP-17" value="" style="line;strokeWidth=1;fillColor=none;align=left;verticalAlign=middle;spacingTop=-1;spacingLeft=3;spacingRight=3;rotatable=0;labelPosition=right;points=[];portConstraint=eastwest;" vertex="1" parent="QnZ6BssVdnIy031K_utP-15">
          <mxGeometry y="52" width="660" height="8" as="geometry" />
        </mxCell>
        <mxCell id="QnZ6BssVdnIy031K_utP-18" value="+checkId(userId: String) : void" style="text;strokeColor=none;fillColor=none;align=left;verticalAlign=top;spacingLeft=4;spacingRight=4;overflow=hidden;rotatable=0;points=[[0,0.5],[1,0.5]];portConstraint=eastwest;" vertex="1" parent="QnZ6BssVdnIy031K_utP-15">
          <mxGeometry y="60" width="660" height="26" as="geometry" />
        </mxCell>
        <mxCell id="QnZ6BssVdnIy031K_utP-19" value="+insertRoom(roomNo:int, roomName:String, roomMember:int, roomPrice:int, roomSize:String, roomFloor:String, &#xa;                      roomParking:String, roomInfo:String, roomAmount:int, campNo:int, roomForm:String, roomCount:int) : void&#xa;" style="text;strokeColor=none;fillColor=none;align=left;verticalAlign=top;spacingLeft=4;spacingRight=4;overflow=hidden;rotatable=0;points=[[0,0.5],[1,0.5]];portConstraint=eastwest;" vertex="1" parent="QnZ6BssVdnIy031K_utP-15">
          <mxGeometry y="86" width="660" height="54" as="geometry" />
        </mxCell>
        <mxCell id="QnZ6BssVdnIy031K_utP-20" value="RoomService" style="swimlane;fontStyle=1;align=center;verticalAlign=top;childLayout=stackLayout;horizontal=1;startSize=26;horizontalStack=0;resizeParent=1;resizeParentMax=0;resizeLast=0;collapsible=1;marginBottom=0;" vertex="1" parent="WIyWlLk6GJQsqaUBKTNV-1">
          <mxGeometry x="860" y="40" width="660" height="140" as="geometry" />
        </mxCell>
        <mxCell id="QnZ6BssVdnIy031K_utP-21" value=" " style="text;strokeColor=none;fillColor=none;align=left;verticalAlign=top;spacingLeft=4;spacingRight=4;overflow=hidden;rotatable=0;points=[[0,0.5],[1,0.5]];portConstraint=eastwest;" vertex="1" parent="QnZ6BssVdnIy031K_utP-20">
          <mxGeometry y="26" width="660" height="26" as="geometry" />
        </mxCell>
        <mxCell id="QnZ6BssVdnIy031K_utP-22" value="" style="line;strokeWidth=1;fillColor=none;align=left;verticalAlign=middle;spacingTop=-1;spacingLeft=3;spacingRight=3;rotatable=0;labelPosition=right;points=[];portConstraint=eastwest;" vertex="1" parent="QnZ6BssVdnIy031K_utP-20">
          <mxGeometry y="52" width="660" height="8" as="geometry" />
        </mxCell>
        <mxCell id="QnZ6BssVdnIy031K_utP-23" value="+checkId(userId: String) : void" style="text;strokeColor=none;fillColor=none;align=left;verticalAlign=top;spacingLeft=4;spacingRight=4;overflow=hidden;rotatable=0;points=[[0,0.5],[1,0.5]];portConstraint=eastwest;" vertex="1" parent="QnZ6BssVdnIy031K_utP-20">
          <mxGeometry y="60" width="660" height="26" as="geometry" />
        </mxCell>
        <mxCell id="QnZ6BssVdnIy031K_utP-24" value="+insertRoom(roomNo:int, roomName:String, roomMember:int, roomPrice:int, roomSize:String, roomFloor:String, &#xa;                      roomParking:String, roomInfo:String, roomAmount:int, campNo:int, roomForm:String, roomCount:int) : void&#xa;" style="text;strokeColor=none;fillColor=none;align=left;verticalAlign=top;spacingLeft=4;spacingRight=4;overflow=hidden;rotatable=0;points=[[0,0.5],[1,0.5]];portConstraint=eastwest;" vertex="1" parent="QnZ6BssVdnIy031K_utP-20">
          <mxGeometry y="86" width="660" height="54" as="geometry" />
        </mxCell>
        <mxCell id="QnZ6BssVdnIy031K_utP-25" value="RoomDao" style="swimlane;fontStyle=1;align=center;verticalAlign=top;childLayout=stackLayout;horizontal=1;startSize=26;horizontalStack=0;resizeParent=1;resizeParentMax=0;resizeLast=0;collapsible=1;marginBottom=0;" vertex="1" parent="WIyWlLk6GJQsqaUBKTNV-1">
          <mxGeometry x="1654" y="40" width="660" height="140" as="geometry" />
        </mxCell>
        <mxCell id="QnZ6BssVdnIy031K_utP-26" value=" " style="text;strokeColor=none;fillColor=none;align=left;verticalAlign=top;spacingLeft=4;spacingRight=4;overflow=hidden;rotatable=0;points=[[0,0.5],[1,0.5]];portConstraint=eastwest;" vertex="1" parent="QnZ6BssVdnIy031K_utP-25">
          <mxGeometry y="26" width="660" height="26" as="geometry" />
        </mxCell>
        <mxCell id="QnZ6BssVdnIy031K_utP-27" value="" style="line;strokeWidth=1;fillColor=none;align=left;verticalAlign=middle;spacingTop=-1;spacingLeft=3;spacingRight=3;rotatable=0;labelPosition=right;points=[];portConstraint=eastwest;" vertex="1" parent="QnZ6BssVdnIy031K_utP-25">
          <mxGeometry y="52" width="660" height="8" as="geometry" />
        </mxCell>
        <mxCell id="QnZ6BssVdnIy031K_utP-28" value="+checkId(userId: String) : void" style="text;strokeColor=none;fillColor=none;align=left;verticalAlign=top;spacingLeft=4;spacingRight=4;overflow=hidden;rotatable=0;points=[[0,0.5],[1,0.5]];portConstraint=eastwest;" vertex="1" parent="QnZ6BssVdnIy031K_utP-25">
          <mxGeometry y="60" width="660" height="26" as="geometry" />
        </mxCell>
        <mxCell id="QnZ6BssVdnIy031K_utP-29" value="+insertRoom(roomNo:int, roomName:String, roomMember:int, roomPrice:int, roomSize:String, roomFloor:String, &#xa;                      roomParking:String, roomInfo:String, roomAmount:int, campNo:int, roomForm:String, roomCount:int) : void&#xa;" style="text;strokeColor=none;fillColor=none;align=left;verticalAlign=top;spacingLeft=4;spacingRight=4;overflow=hidden;rotatable=0;points=[[0,0.5],[1,0.5]];portConstraint=eastwest;" vertex="1" parent="QnZ6BssVdnIy031K_utP-25">
          <mxGeometry y="86" width="660" height="54" as="geometry" />
        </mxCell>
        <mxCell id="QnZ6BssVdnIy031K_utP-30" value="Use" style="endArrow=open;endSize=12;dashed=1;html=1;rounded=0;exitX=0.494;exitY=1.154;exitDx=0;exitDy=0;exitPerimeter=0;entryX=0;entryY=0.5;entryDx=0;entryDy=0;" edge="1" parent="WIyWlLk6GJQsqaUBKTNV-1" target="QnZ6BssVdnIy031K_utP-3">
          <mxGeometry width="160" relative="1" as="geometry">
            <mxPoint x="410.0400000000002" y="178.31600000000003" as="sourcePoint" />
            <mxPoint x="860" y="395" as="targetPoint" />
          </mxGeometry>
        </mxCell>
        <mxCell id="QnZ6BssVdnIy031K_utP-31" value="Use" style="endArrow=open;endSize=12;dashed=1;html=1;rounded=0;exitX=0.636;exitY=1.154;exitDx=0;exitDy=0;exitPerimeter=0;entryX=0.75;entryY=0;entryDx=0;entryDy=0;" edge="1" parent="WIyWlLk6GJQsqaUBKTNV-1" source="QnZ6BssVdnIy031K_utP-24" target="QnZ6BssVdnIy031K_utP-1">
          <mxGeometry width="160" relative="1" as="geometry">
            <mxPoint x="420.0400000000002" y="188.31600000000003" as="sourcePoint" />
            <mxPoint x="870" y="405" as="targetPoint" />
          </mxGeometry>
        </mxCell>
        <mxCell id="QnZ6BssVdnIy031K_utP-32" value="Use" style="endArrow=open;endSize=12;dashed=1;html=1;rounded=0;exitX=0.284;exitY=1.021;exitDx=0;exitDy=0;exitPerimeter=0;entryX=1;entryY=0.5;entryDx=0;entryDy=0;" edge="1" parent="WIyWlLk6GJQsqaUBKTNV-1" source="QnZ6BssVdnIy031K_utP-29" target="QnZ6BssVdnIy031K_utP-3">
          <mxGeometry width="160" relative="1" as="geometry">
            <mxPoint x="430.0400000000002" y="198.31600000000003" as="sourcePoint" />
            <mxPoint x="880" y="415" as="targetPoint" />
          </mxGeometry>
        </mxCell>
        <mxCell id="QnZ6BssVdnIy031K_utP-33" value="" style="endArrow=open;endFill=1;endSize=12;html=1;rounded=0;exitX=1.009;exitY=0.176;exitDx=0;exitDy=0;exitPerimeter=0;" edge="1" parent="WIyWlLk6GJQsqaUBKTNV-1">
          <mxGeometry width="160" relative="1" as="geometry">
            <mxPoint x="749.94" y="94.57599999999991" as="sourcePoint" />
            <mxPoint x="860" y="95" as="targetPoint" />
          </mxGeometry>
        </mxCell>
        <mxCell id="QnZ6BssVdnIy031K_utP-34" value="" style="endArrow=open;endFill=1;endSize=12;html=1;rounded=0;exitX=1.009;exitY=0.176;exitDx=0;exitDy=0;exitPerimeter=0;" edge="1" parent="WIyWlLk6GJQsqaUBKTNV-1">
          <mxGeometry width="160" relative="1" as="geometry">
            <mxPoint x="1520" y="105.7859999999999" as="sourcePoint" />
            <mxPoint x="1650" y="106" as="targetPoint" />
          </mxGeometry>
        </mxCell>
        <mxCell id="QnZ6BssVdnIy031K_utP-35" value="- roomService" style="text;align=center;fontStyle=1;verticalAlign=middle;spacingLeft=3;spacingRight=3;strokeColor=none;rotatable=0;points=[[0,0.5],[1,0.5]];portConstraint=eastwest;" vertex="1" parent="WIyWlLk6GJQsqaUBKTNV-1">
          <mxGeometry x="770" y="60" width="80" height="26" as="geometry" />
        </mxCell>
        <mxCell id="QnZ6BssVdnIy031K_utP-36" value="- roomDao" style="text;align=center;fontStyle=1;verticalAlign=middle;spacingLeft=3;spacingRight=3;strokeColor=none;rotatable=0;points=[[0,0.5],[1,0.5]];portConstraint=eastwest;" vertex="1" parent="WIyWlLk6GJQsqaUBKTNV-1">
          <mxGeometry x="1560" y="70" width="80" height="26" as="geometry" />
        </mxCell>
        <mxCell id="QnZ6BssVdnIy031K_utP-37" value="WISH_CAMP" style="swimlane;fontStyle=0;childLayout=stackLayout;horizontal=1;startSize=26;fillColor=none;horizontalStack=0;resizeParent=1;resizeParentMax=0;resizeLast=0;collapsible=1;marginBottom=0;" vertex="1" parent="WIyWlLk6GJQsqaUBKTNV-1">
          <mxGeometry x="420" y="1210" width="230" height="78" as="geometry">
            <mxRectangle x="50" y="200" width="90" height="26" as="alternateBounds" />
          </mxGeometry>
        </mxCell>
        <mxCell id="QnZ6BssVdnIy031K_utP-38" value="- userNo : int                // 찜한 회원 번호" style="text;strokeColor=none;fillColor=none;align=left;verticalAlign=top;spacingLeft=4;spacingRight=4;overflow=hidden;rotatable=0;points=[[0,0.5],[1,0.5]];portConstraint=eastwest;" vertex="1" parent="QnZ6BssVdnIy031K_utP-37">
          <mxGeometry y="26" width="230" height="26" as="geometry" />
        </mxCell>
        <mxCell id="QnZ6BssVdnIy031K_utP-39" value="- campNo : int              // 찜한 숙소 번호" style="text;strokeColor=none;fillColor=none;align=left;verticalAlign=top;spacingLeft=4;spacingRight=4;overflow=hidden;rotatable=0;points=[[0,0.5],[1,0.5]];portConstraint=eastwest;" vertex="1" parent="QnZ6BssVdnIy031K_utP-37">
          <mxGeometry y="52" width="230" height="26" as="geometry" />
        </mxCell>
        <mxCell id="QnZ6BssVdnIy031K_utP-50" value="CAMP_FILE" style="swimlane;fontStyle=0;childLayout=stackLayout;horizontal=1;startSize=26;fillColor=none;horizontalStack=0;resizeParent=1;resizeParentMax=0;resizeLast=0;collapsible=1;marginBottom=0;" vertex="1" parent="WIyWlLk6GJQsqaUBKTNV-1">
          <mxGeometry x="420" y="1310" width="230" height="78" as="geometry">
            <mxRectangle x="50" y="200" width="90" height="26" as="alternateBounds" />
          </mxGeometry>
        </mxCell>
        <mxCell id="QnZ6BssVdnIy031K_utP-51" value="- campNo : int                // 숙소 번호" style="text;strokeColor=none;fillColor=none;align=left;verticalAlign=top;spacingLeft=4;spacingRight=4;overflow=hidden;rotatable=0;points=[[0,0.5],[1,0.5]];portConstraint=eastwest;" vertex="1" parent="QnZ6BssVdnIy031K_utP-50">
          <mxGeometry y="26" width="230" height="26" as="geometry" />
        </mxCell>
        <mxCell id="QnZ6BssVdnIy031K_utP-52" value="- fileNo : int                    // 이미지 번호" style="text;strokeColor=none;fillColor=none;align=left;verticalAlign=top;spacingLeft=4;spacingRight=4;overflow=hidden;rotatable=0;points=[[0,0.5],[1,0.5]];portConstraint=eastwest;" vertex="1" parent="QnZ6BssVdnIy031K_utP-50">
          <mxGeometry y="52" width="230" height="26" as="geometry" />
        </mxCell>
        <mxCell id="QnZ6BssVdnIy031K_utP-53" value="ROOM_FILE" style="swimlane;fontStyle=0;childLayout=stackLayout;horizontal=1;startSize=26;fillColor=none;horizontalStack=0;resizeParent=1;resizeParentMax=0;resizeLast=0;collapsible=1;marginBottom=0;" vertex="1" parent="WIyWlLk6GJQsqaUBKTNV-1">
          <mxGeometry x="420" y="1410" width="230" height="78" as="geometry">
            <mxRectangle x="50" y="200" width="90" height="26" as="alternateBounds" />
          </mxGeometry>
        </mxCell>
        <mxCell id="QnZ6BssVdnIy031K_utP-54" value="- roomNo : int                // 숙소 번호" style="text;strokeColor=none;fillColor=none;align=left;verticalAlign=top;spacingLeft=4;spacingRight=4;overflow=hidden;rotatable=0;points=[[0,0.5],[1,0.5]];portConstraint=eastwest;" vertex="1" parent="QnZ6BssVdnIy031K_utP-53">
          <mxGeometry y="26" width="230" height="26" as="geometry" />
        </mxCell>
        <mxCell id="QnZ6BssVdnIy031K_utP-55" value="- fileNo : int                   // 이미지 번호" style="text;strokeColor=none;fillColor=none;align=left;verticalAlign=top;spacingLeft=4;spacingRight=4;overflow=hidden;rotatable=0;points=[[0,0.5],[1,0.5]];portConstraint=eastwest;" vertex="1" parent="QnZ6BssVdnIy031K_utP-53">
          <mxGeometry y="52" width="230" height="26" as="geometry" />
        </mxCell>
        <mxCell id="QnZ6BssVdnIy031K_utP-56" value="CAMP_BUSINESS_TYPE" style="swimlane;fontStyle=0;childLayout=stackLayout;horizontal=1;startSize=26;fillColor=none;horizontalStack=0;resizeParent=1;resizeParentMax=0;resizeLast=0;collapsible=1;marginBottom=0;" vertex="1" parent="WIyWlLk6GJQsqaUBKTNV-1">
          <mxGeometry x="420" y="1520" width="230" height="78" as="geometry">
            <mxRectangle x="50" y="200" width="90" height="26" as="alternateBounds" />
          </mxGeometry>
        </mxCell>
        <mxCell id="QnZ6BssVdnIy031K_utP-57" value="- campNo : int               // 숙소사업장번호" style="text;strokeColor=none;fillColor=none;align=left;verticalAlign=top;spacingLeft=4;spacingRight=4;overflow=hidden;rotatable=0;points=[[0,0.5],[1,0.5]];portConstraint=eastwest;" vertex="1" parent="QnZ6BssVdnIy031K_utP-56">
          <mxGeometry y="26" width="230" height="26" as="geometry" />
        </mxCell>
        <mxCell id="QnZ6BssVdnIy031K_utP-58" value="- businessNo : int          // 사업장형태번호" style="text;strokeColor=none;fillColor=none;align=left;verticalAlign=top;spacingLeft=4;spacingRight=4;overflow=hidden;rotatable=0;points=[[0,0.5],[1,0.5]];portConstraint=eastwest;" vertex="1" parent="QnZ6BssVdnIy031K_utP-56">
          <mxGeometry y="52" width="230" height="26" as="geometry" />
        </mxCell>
        <mxCell id="QnZ6BssVdnIy031K_utP-59" value="CAMP" style="swimlane;fontStyle=0;childLayout=stackLayout;horizontal=1;startSize=26;fillColor=none;horizontalStack=0;resizeParent=1;resizeParentMax=0;resizeLast=0;collapsible=1;marginBottom=0;" vertex="1" parent="WIyWlLk6GJQsqaUBKTNV-1">
          <mxGeometry x="1030" y="850" width="290" height="362" as="geometry">
            <mxRectangle x="720" y="440" width="90" height="26" as="alternateBounds" />
          </mxGeometry>
        </mxCell>
        <mxCell id="QnZ6BssVdnIy031K_utP-60" value="- campNo : int                      // 숙소 번호" style="text;strokeColor=none;fillColor=none;align=left;verticalAlign=top;spacingLeft=4;spacingRight=4;overflow=hidden;rotatable=0;points=[[0,0.5],[1,0.5]];portConstraint=eastwest;" vertex="1" parent="QnZ6BssVdnIy031K_utP-59">
          <mxGeometry y="26" width="290" height="26" as="geometry" />
        </mxCell>
        <mxCell id="QnZ6BssVdnIy031K_utP-61" value="- campName : String           // 숙소이름" style="text;strokeColor=none;fillColor=none;align=left;verticalAlign=top;spacingLeft=4;spacingRight=4;overflow=hidden;rotatable=0;points=[[0,0.5],[1,0.5]];portConstraint=eastwest;" vertex="1" parent="QnZ6BssVdnIy031K_utP-59">
          <mxGeometry y="52" width="290" height="26" as="geometry" />
        </mxCell>
        <mxCell id="QnZ6BssVdnIy031K_utP-62" value="- userNo : int                       // 사업자" style="text;strokeColor=none;fillColor=none;align=left;verticalAlign=top;spacingLeft=4;spacingRight=4;overflow=hidden;rotatable=0;points=[[0,0.5],[1,0.5]];portConstraint=eastwest;" vertex="1" parent="QnZ6BssVdnIy031K_utP-59">
          <mxGeometry y="78" width="290" height="26" as="geometry" />
        </mxCell>
        <mxCell id="QnZ6BssVdnIy031K_utP-63" value="- campAddress : String       // 사업장 주소" style="text;strokeColor=none;fillColor=none;align=left;verticalAlign=top;spacingLeft=4;spacingRight=4;overflow=hidden;rotatable=0;points=[[0,0.5],[1,0.5]];portConstraint=eastwest;" vertex="1" parent="QnZ6BssVdnIy031K_utP-59">
          <mxGeometry y="104" width="290" height="26" as="geometry" />
        </mxCell>
        <mxCell id="QnZ6BssVdnIy031K_utP-64" value="- campPhone : String          // 사업장 대표번호" style="text;strokeColor=none;fillColor=none;align=left;verticalAlign=top;spacingLeft=4;spacingRight=4;overflow=hidden;rotatable=0;points=[[0,0.5],[1,0.5]];portConstraint=eastwest;" vertex="1" parent="QnZ6BssVdnIy031K_utP-59">
          <mxGeometry y="130" width="290" height="26" as="geometry" />
        </mxCell>
        <mxCell id="QnZ6BssVdnIy031K_utP-65" value="- campIntro : String             // 사업장 소개" style="text;strokeColor=none;fillColor=none;align=left;verticalAlign=top;spacingLeft=4;spacingRight=4;overflow=hidden;rotatable=0;points=[[0,0.5],[1,0.5]];portConstraint=eastwest;" vertex="1" parent="QnZ6BssVdnIy031K_utP-59">
          <mxGeometry y="156" width="290" height="24" as="geometry" />
        </mxCell>
        <mxCell id="QnZ6BssVdnIy031K_utP-66" value="- campPath : String             // 사업장 등록증 사진경로" style="text;strokeColor=none;fillColor=none;align=left;verticalAlign=top;spacingLeft=4;spacingRight=4;overflow=hidden;rotatable=0;points=[[0,0.5],[1,0.5]];portConstraint=eastwest;" vertex="1" parent="QnZ6BssVdnIy031K_utP-59">
          <mxGeometry y="180" width="290" height="26" as="geometry" />
        </mxCell>
        <mxCell id="QnZ6BssVdnIy031K_utP-67" value="- campPolicy : String          // 사업장 운영 정책" style="text;strokeColor=none;fillColor=none;align=left;verticalAlign=top;spacingLeft=4;spacingRight=4;overflow=hidden;rotatable=0;points=[[0,0.5],[1,0.5]];portConstraint=eastwest;" vertex="1" parent="QnZ6BssVdnIy031K_utP-59">
          <mxGeometry y="206" width="290" height="26" as="geometry" />
        </mxCell>
        <mxCell id="QnZ6BssVdnIy031K_utP-68" value="- campStatus : String         // 승인상태" style="text;strokeColor=none;fillColor=none;align=left;verticalAlign=top;spacingLeft=4;spacingRight=4;overflow=hidden;rotatable=0;points=[[0,0.5],[1,0.5]];portConstraint=eastwest;" vertex="1" parent="QnZ6BssVdnIy031K_utP-59">
          <mxGeometry y="232" width="290" height="26" as="geometry" />
        </mxCell>
        <mxCell id="QnZ6BssVdnIy031K_utP-69" value="- accountNum : String        // 사업자 계좌번호 " style="text;strokeColor=none;fillColor=none;align=left;verticalAlign=top;spacingLeft=4;spacingRight=4;overflow=hidden;rotatable=0;points=[[0,0.5],[1,0.5]];portConstraint=eastwest;" vertex="1" parent="QnZ6BssVdnIy031K_utP-59">
          <mxGeometry y="258" width="290" height="26" as="geometry" />
        </mxCell>
        <mxCell id="QnZ6BssVdnIy031K_utP-70" value="- bank : String                    // 사업자 은행" style="text;strokeColor=none;fillColor=none;align=left;verticalAlign=top;spacingLeft=4;spacingRight=4;overflow=hidden;rotatable=0;points=[[0,0.5],[1,0.5]];portConstraint=eastwest;" vertex="1" parent="QnZ6BssVdnIy031K_utP-59">
          <mxGeometry y="284" width="290" height="26" as="geometry" />
        </mxCell>
        <mxCell id="QnZ6BssVdnIy031K_utP-71" value="- checkin : int                     // 입실시간" style="text;strokeColor=none;fillColor=none;align=left;verticalAlign=top;spacingLeft=4;spacingRight=4;overflow=hidden;rotatable=0;points=[[0,0.5],[1,0.5]];portConstraint=eastwest;" vertex="1" parent="QnZ6BssVdnIy031K_utP-59">
          <mxGeometry y="310" width="290" height="26" as="geometry" />
        </mxCell>
        <mxCell id="QnZ6BssVdnIy031K_utP-73" value="- checkout : int                     // 퇴실시간" style="text;strokeColor=none;fillColor=none;align=left;verticalAlign=top;spacingLeft=4;spacingRight=4;overflow=hidden;rotatable=0;points=[[0,0.5],[1,0.5]];portConstraint=eastwest;" vertex="1" parent="QnZ6BssVdnIy031K_utP-59">
          <mxGeometry y="336" width="290" height="26" as="geometry" />
        </mxCell>
        <mxCell id="QnZ6BssVdnIy031K_utP-74" value="CampController" style="swimlane;fontStyle=1;align=center;verticalAlign=top;childLayout=stackLayout;horizontal=1;startSize=26;horizontalStack=0;resizeParent=1;resizeParentMax=0;resizeLast=0;collapsible=1;marginBottom=0;" vertex="1" parent="WIyWlLk6GJQsqaUBKTNV-1">
          <mxGeometry x="84" y="650" width="660" height="140" as="geometry" />
        </mxCell>
        <mxCell id="QnZ6BssVdnIy031K_utP-75" value=" " style="text;strokeColor=none;fillColor=none;align=left;verticalAlign=top;spacingLeft=4;spacingRight=4;overflow=hidden;rotatable=0;points=[[0,0.5],[1,0.5]];portConstraint=eastwest;" vertex="1" parent="QnZ6BssVdnIy031K_utP-74">
          <mxGeometry y="26" width="660" height="26" as="geometry" />
        </mxCell>
        <mxCell id="QnZ6BssVdnIy031K_utP-76" value="" style="line;strokeWidth=1;fillColor=none;align=left;verticalAlign=middle;spacingTop=-1;spacingLeft=3;spacingRight=3;rotatable=0;labelPosition=right;points=[];portConstraint=eastwest;" vertex="1" parent="QnZ6BssVdnIy031K_utP-74">
          <mxGeometry y="52" width="660" height="8" as="geometry" />
        </mxCell>
        <mxCell id="QnZ6BssVdnIy031K_utP-77" value="+checkId(userId: String) : void" style="text;strokeColor=none;fillColor=none;align=left;verticalAlign=top;spacingLeft=4;spacingRight=4;overflow=hidden;rotatable=0;points=[[0,0.5],[1,0.5]];portConstraint=eastwest;" vertex="1" parent="QnZ6BssVdnIy031K_utP-74">
          <mxGeometry y="60" width="660" height="26" as="geometry" />
        </mxCell>
        <mxCell id="QnZ6BssVdnIy031K_utP-78" value="+insertCamp(campNo:int, campName:String, userNo:int, campAddress:String, campPhone:String, campIntro:String,&#xa;                      campPath:String, campPolicy:String, campStatus:String, accountNum:String, bank:String, checkin:int,&#xa;                      caeckout:int) : void&#xa;" style="text;strokeColor=none;fillColor=none;align=left;verticalAlign=top;spacingLeft=4;spacingRight=4;overflow=hidden;rotatable=0;points=[[0,0.5],[1,0.5]];portConstraint=eastwest;" vertex="1" parent="QnZ6BssVdnIy031K_utP-74">
          <mxGeometry y="86" width="660" height="54" as="geometry" />
        </mxCell>
        <mxCell id="QnZ6BssVdnIy031K_utP-79" value="CampDao" style="swimlane;fontStyle=1;align=center;verticalAlign=top;childLayout=stackLayout;horizontal=1;startSize=26;horizontalStack=0;resizeParent=1;resizeParentMax=0;resizeLast=0;collapsible=1;marginBottom=0;" vertex="1" parent="WIyWlLk6GJQsqaUBKTNV-1">
          <mxGeometry x="1654" y="650" width="660" height="140" as="geometry" />
        </mxCell>
        <mxCell id="QnZ6BssVdnIy031K_utP-80" value=" " style="text;strokeColor=none;fillColor=none;align=left;verticalAlign=top;spacingLeft=4;spacingRight=4;overflow=hidden;rotatable=0;points=[[0,0.5],[1,0.5]];portConstraint=eastwest;" vertex="1" parent="QnZ6BssVdnIy031K_utP-79">
          <mxGeometry y="26" width="660" height="26" as="geometry" />
        </mxCell>
        <mxCell id="QnZ6BssVdnIy031K_utP-81" value="" style="line;strokeWidth=1;fillColor=none;align=left;verticalAlign=middle;spacingTop=-1;spacingLeft=3;spacingRight=3;rotatable=0;labelPosition=right;points=[];portConstraint=eastwest;" vertex="1" parent="QnZ6BssVdnIy031K_utP-79">
          <mxGeometry y="52" width="660" height="8" as="geometry" />
        </mxCell>
        <mxCell id="QnZ6BssVdnIy031K_utP-82" value="+checkId(userId: String) : void" style="text;strokeColor=none;fillColor=none;align=left;verticalAlign=top;spacingLeft=4;spacingRight=4;overflow=hidden;rotatable=0;points=[[0,0.5],[1,0.5]];portConstraint=eastwest;" vertex="1" parent="QnZ6BssVdnIy031K_utP-79">
          <mxGeometry y="60" width="660" height="26" as="geometry" />
        </mxCell>
        <mxCell id="QnZ6BssVdnIy031K_utP-83" value="+insertCamp(campNo:int, campName:String, userNo:int, campAddress:String, campPhone:String, campIntro:String,&#xa;                      campPath:String, campPolicy:String, campStatus:String, accountNum:String, bank:String, checkin:int,&#xa;                      caeckout:int) : void&#xa;" style="text;strokeColor=none;fillColor=none;align=left;verticalAlign=top;spacingLeft=4;spacingRight=4;overflow=hidden;rotatable=0;points=[[0,0.5],[1,0.5]];portConstraint=eastwest;" vertex="1" parent="QnZ6BssVdnIy031K_utP-79">
          <mxGeometry y="86" width="660" height="54" as="geometry" />
        </mxCell>
        <mxCell id="QnZ6BssVdnIy031K_utP-84" value="CampService" style="swimlane;fontStyle=1;align=center;verticalAlign=top;childLayout=stackLayout;horizontal=1;startSize=26;horizontalStack=0;resizeParent=1;resizeParentMax=0;resizeLast=0;collapsible=1;marginBottom=0;" vertex="1" parent="WIyWlLk6GJQsqaUBKTNV-1">
          <mxGeometry x="870" y="650" width="660" height="140" as="geometry" />
        </mxCell>
        <mxCell id="QnZ6BssVdnIy031K_utP-85" value=" " style="text;strokeColor=none;fillColor=none;align=left;verticalAlign=top;spacingLeft=4;spacingRight=4;overflow=hidden;rotatable=0;points=[[0,0.5],[1,0.5]];portConstraint=eastwest;" vertex="1" parent="QnZ6BssVdnIy031K_utP-84">
          <mxGeometry y="26" width="660" height="26" as="geometry" />
        </mxCell>
        <mxCell id="QnZ6BssVdnIy031K_utP-86" value="" style="line;strokeWidth=1;fillColor=none;align=left;verticalAlign=middle;spacingTop=-1;spacingLeft=3;spacingRight=3;rotatable=0;labelPosition=right;points=[];portConstraint=eastwest;" vertex="1" parent="QnZ6BssVdnIy031K_utP-84">
          <mxGeometry y="52" width="660" height="8" as="geometry" />
        </mxCell>
        <mxCell id="QnZ6BssVdnIy031K_utP-87" value="+checkId(userId: String) : void" style="text;strokeColor=none;fillColor=none;align=left;verticalAlign=top;spacingLeft=4;spacingRight=4;overflow=hidden;rotatable=0;points=[[0,0.5],[1,0.5]];portConstraint=eastwest;" vertex="1" parent="QnZ6BssVdnIy031K_utP-84">
          <mxGeometry y="60" width="660" height="26" as="geometry" />
        </mxCell>
        <mxCell id="QnZ6BssVdnIy031K_utP-88" value="+insertCamp(campNo:int, campName:String, userNo:int, campAddress:String, campPhone:String, campIntro:String,&#xa;                      campPath:String, campPolicy:String, campStatus:String, accountNum:String, bank:String, checkin:int,&#xa;                      caeckout:int) : void&#xa;" style="text;strokeColor=none;fillColor=none;align=left;verticalAlign=top;spacingLeft=4;spacingRight=4;overflow=hidden;rotatable=0;points=[[0,0.5],[1,0.5]];portConstraint=eastwest;" vertex="1" parent="QnZ6BssVdnIy031K_utP-84">
          <mxGeometry y="86" width="660" height="54" as="geometry" />
        </mxCell>
      </root>
    </mxGraphModel>
  </diagram>
</mxfile>
